<svg preserveAspectRatio="none" width="100%" height="100%" overflow="visible" style="display: block;" viewBox="0 0 22 23" fill="none" xmlns="http://www.w3.org/2000/svg">
<g id="Margin">
<path id="Icon" d="M7.6 23L5.7 19.8L2.1 19L2.45 15.3L0 12.5L2.45 9.7L2.1 6L5.7 5.2L7.6 2L11 3.45L14.4 2L16.3 5.2L19.9 6L19.55 9.7L22 12.5L19.55 15.3L19.9 19L16.3 19.8L14.4 23L11 21.55L7.6 23V23M9.95 16.05L15.6 10.4L14.2 8.95L9.95 13.2L7.8 11.1L6.4 12.5L9.95 16.05V16.05" fill="var(--fill-0, #F7931A)"/>
</g>
</svg>
