<svg preserveAspectRatio="none" width="100%" height="100%" overflow="visible" style="display: block;" viewBox="0 0 18 22" fill="none" xmlns="http://www.w3.org/2000/svg">
<g id="Margin">
<path id="Icon" d="M2.15 19.85C1.46667 19.05 0.9375 18.1542 0.5625 17.1625C0.1875 16.1708 0 15.1167 0 14C0 11.5 0.875 9.375 2.625 7.625C4.375 5.875 6.5 5 9 5C9.03333 5 9.06667 5 9.1 5C9.13333 5 9.16667 5 9.2 5L7.6 3.4L9 2L13 6L9 10L7.575 8.575L9.15 7C9.11667 7 9.09167 7 9.075 7C9.05833 7 9.03333 7 9 7C7.06667 7 5.41667 7.68333 4.05 9.05C2.68333 10.4167 2 12.0667 2 14C2 14.85 2.1375 15.65 2.4125 16.4C2.6875 17.15 3.075 17.825 3.575 18.425L2.15 19.85V19.85M8 19.5C8 19.1167 7.87083 18.7375 7.6125 18.3625C7.35417 17.9875 7.06667 17.5958 6.75 17.1875C6.43333 16.7792 6.14583 16.3542 5.8875 15.9125C5.62917 15.4708 5.5 15 5.5 14.5C5.5 13.5333 5.84167 12.7083 6.525 12.025C7.20833 11.3417 8.03333 11 9 11C9.96667 11 10.7917 11.3417 11.475 12.025C12.1583 12.7083 12.5 13.5333 12.5 14.5C12.5 15 12.3708 15.4708 12.1125 15.9125C11.8542 16.3542 11.5667 16.7792 11.25 17.1875C10.9333 17.5958 10.6458 17.9875 10.3875 18.3625C10.1292 18.7375 10 19.1167 10 19.5H8V19.5M8 22V20.5H10V22H8V22M15.85 19.85L14.425 18.425C14.925 17.825 15.3125 17.15 15.5875 16.4C15.8625 15.65 16 14.85 16 14C16 12.9 15.7708 11.8792 15.3125 10.9375C14.8542 9.99583 14.225 9.20833 13.425 8.575L14.85 7.15C15.8167 7.98333 16.5833 8.9875 17.15 10.1625C17.7167 11.3375 18 12.6167 18 14C18 15.1167 17.8125 16.1708 17.4375 17.1625C17.0625 18.1542 16.5333 19.05 15.85 19.85V19.85" fill="var(--fill-0, #F7931A)"/>
</g>
</svg>
