<svg preserveAspectRatio="none" width="100%" height="100%" overflow="visible" style="display: block;" viewBox="0 0 22 19" fill="none" xmlns="http://www.w3.org/2000/svg">
<g id="Margin">
<path id="Icon" d="M2 19C1.45 19 0.979167 18.8042 0.5875 18.4125C0.195833 18.0208 0 17.55 0 17C0 16.45 0.195833 15.9792 0.5875 15.5875C0.979167 15.1958 1.45 15 2 15C2.1 15 2.1875 15 2.2625 15C2.3375 15 2.41667 15.0167 2.5 15.05L7.05 10.5C7.01667 10.4167 7 10.3375 7 10.2625C7 10.1875 7 10.1 7 10C7 9.45 7.19583 8.97917 7.5875 8.5875C7.97917 8.19583 8.45 8 9 8C9.55 8 10.0208 8.19583 10.4125 8.5875C10.8042 8.97917 11 9.45 11 10C11 10.0333 10.9833 10.2 10.95 10.5L13.5 13.05C13.5833 13.0167 13.6625 13 13.7375 13C13.8125 13 13.9 13 14 13C14.1 13 14.1875 13 14.2625 13C14.3375 13 14.4167 13.0167 14.5 13.05L18.05 9.5C18.0167 9.41667 18 9.3375 18 9.2625C18 9.1875 18 9.1 18 9C18 8.45 18.1958 7.97917 18.5875 7.5875C18.9792 7.19583 19.45 7 20 7C20.55 7 21.0208 7.19583 21.4125 7.5875C21.8042 7.97917 22 8.45 22 9C22 9.55 21.8042 10.0208 21.4125 10.4125C21.0208 10.8042 20.55 11 20 11C19.9 11 19.8125 11 19.7375 11C19.6625 11 19.5833 10.9833 19.5 10.95L15.95 14.5C15.9833 14.5833 16 14.6625 16 14.7375C16 14.8125 16 14.9 16 15C16 15.55 15.8042 16.0208 15.4125 16.4125C15.0208 16.8042 14.55 17 14 17C13.45 17 12.9792 16.8042 12.5875 16.4125C12.1958 16.0208 12 15.55 12 15C12 14.9 12 14.8125 12 14.7375C12 14.6625 12.0167 14.5833 12.05 14.5L9.5 11.95C9.41667 11.9833 9.3375 12 9.2625 12C9.1875 12 9.1 12 9 12C8.96667 12 8.8 11.9833 8.5 11.95L3.95 16.5C3.98333 16.5833 4 16.6625 4 16.7375C4 16.8125 4 16.9 4 17C4 17.55 3.80417 18.0208 3.4125 18.4125C3.02083 18.8042 2.55 19 2 19V19M3 8.975L2.375 7.625L1.025 7L2.375 6.375L3 5.025L3.625 6.375L4.975 7L3.625 7.625L3 8.975V8.975M14 8L13.05 5.95L11 5L13.05 4.05L14 2L14.95 4.05L17 5L14.95 5.95L14 8V8" fill="var(--fill-0, #F7931A)"/>
</g>
</svg>
