<svg preserveAspectRatio="none" width="100%" height="100%" overflow="visible" style="display: block;" viewBox="0 0 21 23" fill="none" xmlns="http://www.w3.org/2000/svg">
<g id="Margin">
<path id="Icon" d="M18 8L17.05 5.95L15 5L17.05 4.05L18 2L18.95 4.05L21 5L18.95 5.95L18 8V8M6.5 8L5.55 5.95L3.5 5L5.55 4.05L6.5 2L7.45 4.05L9.5 5L7.45 5.95L6.5 8V8M18 19.5L17.05 17.45L15 16.5L17.05 15.55L18 13.5L18.95 15.55L21 16.5L18.95 17.45L18 19.5V19.5M3.1 22.7L0.3 19.9C0.1 19.7 0 19.4583 0 19.175C0 18.8917 0.1 18.65 0.3 18.45L11.45 7.3C11.65 7.1 11.8917 7 12.175 7C12.4583 7 12.7 7.1 12.9 7.3L15.7 10.1C15.9 10.3 16 10.5417 16 10.825C16 11.1083 15.9 11.35 15.7 11.55L4.55 22.7C4.35 22.9 4.10833 23 3.825 23C3.54167 23 3.3 22.9 3.1 22.7V22.7M12.175 12.225L13.575 10.825L12.175 9.425L10.775 10.825L12.175 12.225V12.225" fill="var(--fill-0, #F7931A)"/>
</g>
</svg>
