<svg width="57" height="59" viewBox="0 0 56.5 59" fill="none" xmlns="http://www.w3.org/2000/svg">
<rect x="0.5" y="0.5" width="55.5" height="58" rx="27.75" fill="#1E2025"/>
<rect x="0.5" y="0.5" width="55.5" height="58" rx="27.75" stroke="#2D2F36"/>
<path d="M23.9375 39.5H32.5625L33.8125 34.5H22.6875L23.9375 39.5M23.9375 42C23.3542 42 22.8438 41.8229 22.4062 41.4688C21.9688 41.1146 21.6771 40.6562 21.5312 40.0938L20.125 34.5H36.375L34.9688 40.0938C34.8229 40.6562 34.5312 41.1146 34.0938 41.4688C33.6562 41.8229 33.1458 42 32.5625 42H23.9375M19.5 32H37V29.5H19.5V32M28.25 24.5C28.25 22.4167 28.9792 20.6458 30.4375 19.1875C31.8958 17.7292 33.6667 17 35.75 17C35.75 18.875 35.1562 20.5 33.9688 21.875C32.7812 23.25 31.2917 24.0833 29.5 24.375V27H39.5V32C39.5 32.6875 39.2552 33.276 38.7656 33.7656C38.276 34.2552 37.6875 34.5 37 34.5H19.5C18.8125 34.5 18.224 34.2552 17.7344 33.7656C17.2448 33.276 17 32.6875 17 32V27H27V24.375C25.2083 24.0833 23.7188 23.25 22.5312 21.875C21.3438 20.5 20.75 18.875 20.75 17C22.8333 17 24.6042 17.7292 26.0625 19.1875C27.5208 20.6458 28.25 22.4167 28.25 24.5" fill="#F7931A"/>
</svg>
