<svg width="57" height="57" viewBox="0 0 56.5 56.5" fill="none" xmlns="http://www.w3.org/2000/svg">
<rect x="0.5" y="0.5" width="55.5" height="55.5" rx="27.75" fill="#1E2025"/>
<rect x="0.5" y="0.5" width="55.5" height="55.5" rx="27.75" stroke="#2D2F36"/>
<path d="M22.5 33.25L26.3125 29.4375L28.8125 31.9375L33.25 27.5312V29.5H35.75V23.25H29.5V25.75H31.4688L28.8125 28.4062L26.3125 25.9062L20.75 31.5L22.5 33.25M19.5 39.5C18.8125 39.5 18.224 39.2552 17.7344 38.7656C17.2448 38.276 17 37.6875 17 37V19.5C17 18.8125 17.2448 18.224 17.7344 17.7344C18.224 17.2448 18.8125 17 19.5 17H37C37.6875 17 38.276 17.2448 38.7656 17.7344C39.2552 18.224 39.5 18.8125 39.5 19.5V37C39.5 37.6875 39.2552 38.276 38.7656 38.7656C38.276 39.2552 37.6875 39.5 37 39.5H19.5" fill="#F7931A"/>
</svg>
